<?xml version="1.0" encoding="UTF-8" standalone="no" ?>
<!DOCTYPE svg PUBLIC "-//W3C//DTD SVG 1.1//EN" "http://www.w3.org/Graphics/SVG/1.1/DTD/svg11.dtd">
<svg xmlns="http://www.w3.org/2000/svg" xmlns:xlink="http://www.w3.org/1999/xlink" version="1.1" width="50" height="50" viewBox="0 0 500 500" xml:space="preserve">
<desc>Created with Fabric.js 5.3.0</desc>
<defs>
</defs>
<g transform="matrix(1 0 0 1 39.4492753623 428.3571580064)" id="BSfkUosg1CPZtbtjAjS6a"  >
<path style="stroke: rgb(0,0,0); stroke-width: 1; stroke-dasharray: none; stroke-linecap: round; stroke-dashoffset: 0; stroke-linejoin: round; stroke-miterlimit: 10; fill: none; fill-rule: nonzero; opacity: 1;" vector-effect="non-scaling-stroke"  transform=" translate(-39.4492753623, -428.3571580064)" d="M 39.4482753623189 428.35715800636274 L 39.4502753623189 428.35715800636274" stroke-linecap="round" />
</g>
<g transform="matrix(1.6970855031 0 0 1.0070273932 95.7475222571 268.964223349)" id="6EJz_HnLPRMDYh0esh8m8"  >
<path style="stroke: rgb(0,0,0); stroke-width: 1; stroke-dasharray: none; stroke-linecap: butt; stroke-dashoffset: 0; stroke-linejoin: miter; stroke-miterlimit: 4; fill: rgb(255,255,255); fill-opacity: 0; fill-rule: nonzero; opacity: 1;" vector-effect="non-scaling-stroke"  transform=" translate(0, 0)" d="M -26.95652 147.3913 L -26.95652 -147.39130999999998 L 26.95652 -147.39130999999998 L 26.95652 147.3913" stroke-linecap="round" />
</g>
<g transform="matrix(1 0 0 1 199.541000518 289.3152173913)" id="9RltL6gDhtpIQlk-nrauA"  >
<path style="stroke: rgb(0,0,0); stroke-width: 1; stroke-dasharray: none; stroke-linecap: butt; stroke-dashoffset: 0; stroke-linejoin: miter; stroke-miterlimit: 4; fill: rgb(255,255,255); fill-opacity: 0; fill-rule: nonzero; opacity: 1;" vector-effect="non-scaling-stroke"  transform=" translate(0, 0)" d="M -57.04596 -6.33696 L -43.82361 -6.33696 L -29.91057 -48.07609 L -12.519269999999999 -48.07609 L 4.002470000000002 -128.07609 L 15.306820000000002 -48.07608999999999 L 30.08943 -48.07608999999999 L 44.87204 -6.336959999999991 L 57.04595 -6.336959999999991 L 57.04595 128.07608" stroke-linecap="round" />
</g>
<g transform="matrix(1 0 0 1 302.6739130435 313.2934782609)" id="9bXPgXSehabgOKBxzhHRw"  >
<path style="stroke: rgb(0,0,0); stroke-width: 1; stroke-dasharray: none; stroke-linecap: butt; stroke-dashoffset: 0; stroke-linejoin: miter; stroke-miterlimit: 4; fill: rgb(255,255,255); fill-opacity: 0; fill-rule: nonzero; opacity: 1;" vector-effect="non-scaling-stroke"  transform=" translate(0, 0)" d="M -45.58696 -31.55435 L -45.58696 -104.59783 L 45.58695000000001 -104.59783 L 45.58695000000001 104.59782" stroke-linecap="round" />
</g>
<g transform="matrix(1 0 0 1 400.6847826087 340.6847826087)" id="8TtDxXOdJmSQAcfdzjTQT"  >
<path style="stroke: rgb(0,0,0); stroke-width: 1; stroke-dasharray: none; stroke-linecap: butt; stroke-dashoffset: 0; stroke-linejoin: miter; stroke-miterlimit: 4; fill: rgb(255,255,255); fill-opacity: 0; fill-rule: nonzero; opacity: 1;" vector-effect="non-scaling-stroke"  transform=" translate(0, 0)" d="M -51.92391 -77.20652 L 51.92392 -77.20652 L 51.92392 77.20652" stroke-linecap="round" />
</g>
</svg>