<?xml version="1.0" encoding="UTF-8" standalone="no" ?>
<!DOCTYPE svg PUBLIC "-//W3C//DTD SVG 1.1//EN" "http://www.w3.org/Graphics/SVG/1.1/DTD/svg11.dtd">
<svg xmlns="http://www.w3.org/2000/svg" xmlns:xlink="http://www.w3.org/1999/xlink" version="1.1" width="50" height="50" viewBox="0 0 500 500" xml:space="preserve">
<desc>Created with Fabric.js 5.3.0</desc>
<defs>
</defs>
<g transform="matrix(1 0 0 1 242.7361865942 319.4130434783)" id="0QNU-GamL8Qrz_UWy4Ld8"  >
<path style="stroke: rgb(0,0,0); stroke-width: 1; stroke-dasharray: none; stroke-linecap: butt; stroke-dashoffset: 0; stroke-linejoin: miter; stroke-miterlimit: 4; fill: rgb(255,255,255); fill-opacity: 0; fill-rule: nonzero; opacity: 1;" vector-effect="non-scaling-stroke"  transform=" translate(0, 0)" d="M -63.4101 132.3913 L -63.4101 107.16705 L -4.415990000000001 65.43478 L -35.72034 -4.130439999999993 L 15.58401 -48.54281999999999 L 24.48043 -103.45756999999999 L 63.4101 -136.73913 L 45.14923 -91.15216999999998 L 45.14923 -38.91303999999998 L 12.10575 0.21739000000001596 L 59.06227 78.47826 L 12.10575 115.8627 L 15.584010000000001 136.73913" stroke-linecap="round" />
</g>
<g transform="matrix(1 0 0 1 250 219.5645575586)" id="9W5hm-lCf5g1Hp3tku-JA"  >
<path style="stroke: rgb(0,0,0); stroke-width: 1; stroke-dasharray: none; stroke-linecap: butt; stroke-dashoffset: 0; stroke-linejoin: miter; stroke-miterlimit: 4; fill: rgb(255,255,255); fill-opacity: 0; fill-rule: nonzero; opacity: 1;" vector-effect="non-scaling-stroke"  transform=" translate(0, 0)" d="M -170.43478 145.65217 L -170.43478 -45.65217999999999 L -193.91304 -45.65217999999999 L -0.869560000000007 -145.65218 L 193.91305 -45.65217999999999 L 170.43479 -45.65217999999999 L 170.43479 145.65217" stroke-linecap="round" />
</g>
<g transform="matrix(1 0 0 1 150.1847826087 236.0869565217)" id="kyE9z0N5FQS10_qqIGsJp"  >
<path style="stroke: rgb(0,0,0); stroke-width: 1; stroke-dasharray: none; stroke-linecap: butt; stroke-dashoffset: 0; stroke-linejoin: miter; stroke-miterlimit: 4; fill: rgb(255,255,255); fill-opacity: 0; fill-rule: nonzero; opacity: 1;" vector-effect="non-scaling-stroke"  transform=" translate(0, 0)" d="M -27.6413 -43.91304 L -27.6413 43.91304999999999 L 27.641309999999997 43.91304999999999 L 27.641309999999997 -43.91304 z" stroke-linecap="round" />
</g>
<g transform="matrix(1 0 0 1 154.7826086957 365.7167314717)" id="YVd1wH6_DHgwrSpN-PsE0"  >
<path style="stroke: rgb(0,0,0); stroke-width: 1; stroke-dasharray: none; stroke-linecap: butt; stroke-dashoffset: 0; stroke-linejoin: miter; stroke-miterlimit: 4; fill: rgb(255,255,255); fill-opacity: 0; fill-rule: nonzero; opacity: 1;" vector-effect="non-scaling-stroke"  transform=" translate(0, 0)" d="M -74.34783 0 L 74.34782 0" stroke-linecap="round" />
</g>
<g transform="matrix(1 0 0 1 351.3043478261 365.2167314717)" id="7eO8Gd4ENsHlaO0PjMGck"  >
<path style="stroke: rgb(0,0,0); stroke-width: 1; stroke-dasharray: none; stroke-linecap: butt; stroke-dashoffset: 0; stroke-linejoin: miter; stroke-miterlimit: 4; fill: rgb(255,255,255); fill-opacity: 0; fill-rule: nonzero; opacity: 1;" vector-effect="non-scaling-stroke"  transform=" translate(0, 0)" d="M 69.13043 0 L -69.13044000000001 0" stroke-linecap="round" />
</g>
</svg>