<?xml version="1.0" encoding="UTF-8" standalone="no" ?>
<!DOCTYPE svg PUBLIC "-//W3C//DTD SVG 1.1//EN" "http://www.w3.org/Graphics/SVG/1.1/DTD/svg11.dtd">
<svg xmlns="http://www.w3.org/2000/svg" xmlns:xlink="http://www.w3.org/1999/xlink" version="1.1" width="50" height="50" viewBox="0 0 500 500" xml:space="preserve">
<desc>Created with Fabric.js 5.3.0</desc>
<defs>
</defs>
<g transform="matrix(1 0 0 1 244.9943387681 52.1211264287)" id="bsmjzCg2Euu_5fO981r72"  >
<path style="stroke: rgb(0,0,0); stroke-width: 1; stroke-dasharray: none; stroke-linecap: round; stroke-dashoffset: 0; stroke-linejoin: round; stroke-miterlimit: 10; fill: none; fill-rule: nonzero; opacity: 1;" vector-effect="non-scaling-stroke"  transform=" translate(-244.9943387681, -52.1211264287)" d="M 244.5587826086957 52.1211264286556 Q 244.5597826086957 52.1211264286556 244.99433876811602 52.1211264286556 L 245.42989492753634 52.1211264286556" stroke-linecap="round" />
</g>
<g transform="matrix(1.0308008925 0 0 1.1440323326 250 238.1898812786)" id="_Hpk7ewxIBKPX3jYepuRx"  >
<path style="stroke: rgb(0,0,0); stroke-width: 1; stroke-dasharray: none; stroke-linecap: butt; stroke-dashoffset: 0; stroke-linejoin: miter; stroke-miterlimit: 4; fill: rgb(255,255,255); fill-opacity: 0; fill-rule: nonzero; opacity: 1;" vector-effect="non-scaling-stroke"  transform=" translate(0, 0)" d="M -199.56522 156.08696 L -156.95652 21.30435 L -113.47826 -76.08695 L -66.52174000000001 -156.08695 L -40.43478 -135.21738 L -16.086950000000005 -100.43476999999999 L 8.260879999999993 -64.78259999999999 L 31.428699999999992 -30.459909999999986 L 55.51733999999999 -8.260859999999987 L 73.47827999999998 -29.999989999999986 L 92.58272999999998 -60.312789999999985 L 117.82609999999998 -29.999989999999986 L 127.39131999999998 -8.260859999999987 L 150.86957999999998 36.086970000000015 L 199.56522999999999 156.08697 z" stroke-linecap="round" />
</g>
<g transform="matrix(1.005263957 0 0 1.005263957 252.8902029161 321.5848609932)" id="vefRYnBmCaBusJ2iN70LI"  >
<path style="stroke: rgb(0,0,0); stroke-width: 1; stroke-dasharray: none; stroke-linecap: butt; stroke-dashoffset: 0; stroke-linejoin: miter; stroke-miterlimit: 4; fill: rgb(255,255,255); fill-opacity: 0; fill-rule: nonzero; opacity: 1;" vector-effect="non-scaling-stroke"  transform=" translate(0, 0)" d="M 56.0733 -94.67518 L 7.404970000000006 10.460250000000002 L -35.20372999999999 63.503730000000004 L -56.07329999999999 94.67518000000001" stroke-linecap="round" />
</g>
</svg>